<?xml version="1.0" encoding="utf-8"?>
<!-- Generator: Adobe Illustrator 15.0.0, SVG Export Plug-In . SVG Version: 6.00 Build 0)  -->
<!DOCTYPE svg PUBLIC "-//W3C//DTD SVG 1.1//EN" "http://www.w3.org/Graphics/SVG/1.1/DTD/svg11.dtd">
<svg version="1.1" id="Layer_1" xmlns="http://www.w3.org/2000/svg" xmlns:xlink="http://www.w3.org/1999/xlink" x="0px" y="0px"
	 width="170.899px" height="40.075px" viewBox="0 0 170.899 40.075" enable-background="new 0 0 170.899 40.075"
	 xml:space="preserve">
<g>
	<g>
		<path d="M50.232,20.536v-0.059c0-5.567,4.262-10.285,10.254-10.285c3.466,0,5.597,0.967,7.643,2.7l-2.217,2.642
			c-1.534-1.306-3.039-2.13-5.567-2.13c-3.666,0-6.449,3.21-6.449,7.016v0.058c0,4.091,2.699,7.101,6.761,7.101
			c1.875,0,3.58-0.596,4.799-1.506v-3.721h-5.083v-3.039h8.465v8.353c-1.959,1.675-4.772,3.097-8.294,3.097
			C54.324,30.762,50.232,26.329,50.232,20.536z"/>
		<path d="M74.065,24.456c0.483,0.736,1.989,3.038,6.22,3.038c0.713,0,1.449-0.055,2.16-0.342c1.448-0.597,1.705-1.618,1.705-2.3
			c0-1.277-0.881-1.732-1.507-1.99c-0.453-0.168-0.509-0.195-2.329-0.623L77.9,21.728c-1.278-0.312-1.905-0.455-2.529-0.709
			c-0.908-0.369-3.381-1.593-3.381-4.916c0-3.807,3.21-6.249,7.926-6.249c4.318,0,6.648,2.127,8.068,4.06l-3.068,2.302
			c-0.682-0.993-1.989-2.98-5.2-2.98c-2.015,0-3.776,0.905-3.776,2.442c0,1.704,1.874,2.045,3.691,2.385l2.074,0.455
			c2.698,0.566,6.506,1.675,6.506,5.965c0,4.604-4.262,6.45-8.523,6.45c-1.108,0-2.357-0.116-3.578-0.456
			c-1.335-0.399-3.694-1.362-5.2-3.805L74.065,24.456z"/>
		<path d="M89.069,10.536h3.863l5.994,15.283l5.965-15.283h3.778l-8.267,20.024h-3.068L89.069,10.536z"/>
	</g>
	<g>
		<path d="M121.312,18.184c-0.296-0.468-0.656-0.86-1.081-1.177c-0.424-0.316-0.892-0.558-1.402-0.723
			c-0.512-0.166-1.047-0.248-1.609-0.248c-1.021,0-1.9,0.194-2.635,0.583c-0.734,0.388-1.335,0.903-1.803,1.543
			c-0.467,0.642-0.812,1.365-1.036,2.171c-0.224,0.807-0.335,1.635-0.335,2.482c0,0.835,0.111,1.659,0.335,2.474
			c0.224,0.813,0.569,1.54,1.036,2.181c0.468,0.641,1.068,1.155,1.803,1.545c0.734,0.387,1.613,0.582,2.635,0.582
			c0.721,0,1.367-0.13,1.943-0.389s1.072-0.613,1.49-1.058c0.418-0.446,0.756-0.97,1.015-1.566c0.26-0.597,0.425-1.241,0.496-1.933
			h1.47c-0.102,0.951-0.324,1.807-0.67,2.57s-0.793,1.41-1.339,1.943c-0.547,0.532-1.191,0.943-1.933,1.23
			c-0.742,0.289-1.566,0.432-2.473,0.432c-1.208,0-2.271-0.22-3.186-0.658c-0.914-0.438-1.672-1.025-2.277-1.76
			c-0.604-0.734-1.059-1.584-1.36-2.549c-0.303-0.963-0.453-1.979-0.453-3.045c0-1.064,0.15-2.079,0.453-3.043
			c0.302-0.965,0.756-1.818,1.36-2.559c0.605-0.742,1.363-1.332,2.277-1.771c0.915-0.438,1.978-0.658,3.186-0.658
			c0.734,0,1.451,0.108,2.149,0.322c0.698,0.217,1.331,0.537,1.899,0.963c0.568,0.423,1.044,0.945,1.426,1.564
			c0.381,0.62,0.622,1.332,0.723,2.138h-1.469C121.819,19.18,121.606,18.652,121.312,18.184z"/>
		<path d="M125.685,21.11c0.229-0.475,0.543-0.864,0.939-1.166c0.395-0.303,0.859-0.526,1.393-0.669
			c0.531-0.144,1.123-0.215,1.771-0.215c0.489,0,0.979,0.047,1.468,0.139c0.488,0.094,0.93,0.271,1.318,0.53
			c0.389,0.258,0.705,0.623,0.949,1.09s0.367,1.077,0.367,1.825v5.916c0,0.549,0.267,0.82,0.799,0.82
			c0.158,0,0.303-0.027,0.433-0.086v1.145c-0.159,0.029-0.3,0.051-0.422,0.064c-0.122,0.016-0.278,0.022-0.463,0.022
			c-0.347,0-0.624-0.048-0.833-0.142c-0.209-0.092-0.371-0.226-0.485-0.398c-0.115-0.172-0.19-0.379-0.228-0.615
			c-0.035-0.238-0.053-0.5-0.053-0.788h-0.044c-0.245,0.36-0.493,0.681-0.745,0.96c-0.252,0.28-0.531,0.516-0.842,0.703
			c-0.31,0.186-0.662,0.33-1.058,0.432c-0.396,0.1-0.868,0.15-1.415,0.15c-0.518,0-1.004-0.061-1.457-0.184
			c-0.453-0.121-0.85-0.316-1.188-0.582c-0.34-0.267-0.605-0.605-0.799-1.016c-0.195-0.41-0.293-0.896-0.293-1.457
			c0-0.777,0.174-1.387,0.52-1.824c0.345-0.439,0.803-0.775,1.371-1.006c0.568-0.229,1.209-0.392,1.922-0.484
			c0.712-0.094,1.436-0.185,2.17-0.27c0.288-0.029,0.54-0.065,0.756-0.109c0.217-0.043,0.395-0.119,0.539-0.227
			c0.146-0.107,0.256-0.256,0.336-0.443c0.079-0.186,0.117-0.43,0.117-0.733c0-0.46-0.074-0.839-0.225-1.134
			c-0.152-0.295-0.361-0.529-0.627-0.702c-0.268-0.172-0.576-0.292-0.928-0.356c-0.354-0.064-0.732-0.096-1.135-0.096
			c-0.863,0-1.568,0.206-2.116,0.615c-0.548,0.411-0.835,1.069-0.864,1.977h-1.36C125.317,22.147,125.453,21.584,125.685,21.11z
			 M132.487,24.436c-0.088,0.158-0.253,0.273-0.498,0.345c-0.246,0.071-0.461,0.122-0.648,0.151c-0.574,0.102-1.169,0.191-1.78,0.27
			c-0.611,0.08-1.171,0.199-1.674,0.355c-0.504,0.158-0.919,0.385-1.241,0.682c-0.324,0.295-0.486,0.716-0.486,1.262
			c0,0.347,0.068,0.653,0.205,0.918c0.137,0.268,0.32,0.496,0.551,0.691c0.23,0.194,0.496,0.342,0.799,0.443
			c0.303,0.101,0.612,0.15,0.93,0.15c0.518,0,1.014-0.078,1.488-0.237c0.475-0.157,0.89-0.388,1.242-0.69s0.633-0.67,0.844-1.102
			c0.207-0.432,0.311-0.922,0.311-1.469v-1.77H132.487z"/>
		<path d="M137.647,19.382v2.116h0.043c0.316-0.778,0.831-1.378,1.545-1.803c0.711-0.424,1.521-0.637,2.428-0.637
			c0.851,0,1.588,0.159,2.215,0.475c0.625,0.316,1.146,0.746,1.564,1.285c0.417,0.54,0.727,1.167,0.929,1.878
			c0.2,0.712,0.304,1.466,0.304,2.257c0,0.792-0.104,1.544-0.304,2.256c-0.202,0.714-0.512,1.34-0.929,1.879
			c-0.418,0.541-0.939,0.964-1.564,1.275c-0.627,0.309-1.364,0.463-2.215,0.463c-0.402,0-0.806-0.051-1.209-0.15
			c-0.404-0.102-0.777-0.252-1.123-0.453c-0.346-0.203-0.65-0.455-0.917-0.757s-0.472-0.654-0.614-1.058h-0.045v6.219h-1.359V19.382
			H137.647z M145.108,23.237c-0.137-0.568-0.354-1.075-0.648-1.522c-0.295-0.446-0.674-0.81-1.133-1.09
			c-0.461-0.28-1.016-0.421-1.664-0.421c-0.748,0-1.375,0.129-1.877,0.389c-0.506,0.258-0.908,0.604-1.211,1.037
			c-0.303,0.432-0.514,0.936-0.636,1.51c-0.123,0.576-0.185,1.181-0.185,1.814c0,0.576,0.069,1.148,0.205,1.717
			c0.137,0.568,0.361,1.076,0.67,1.521c0.31,0.447,0.713,0.811,1.209,1.091c0.496,0.282,1.104,0.421,1.824,0.421
			c0.648,0,1.203-0.139,1.664-0.421c0.459-0.28,0.838-0.644,1.133-1.091c0.295-0.445,0.512-0.953,0.648-1.521
			s0.205-1.141,0.205-1.717S145.245,23.805,145.108,23.237z"/>
		<path d="M149.956,15.106v2.183h-1.361v-2.183H149.956z M149.956,19.382v11.143h-1.361V19.382H149.956z"/>
		<path d="M156.779,19.382v1.145h-2.268v7.514c0,0.446,0.061,0.795,0.183,1.047c0.121,0.252,0.428,0.393,0.918,0.422
			c0.389,0,0.777-0.021,1.167-0.064v1.144c-0.202,0-0.403,0.007-0.604,0.022c-0.203,0.014-0.404,0.021-0.605,0.021
			c-0.907,0-1.54-0.175-1.902-0.529c-0.357-0.353-0.531-1.005-0.517-1.953v-7.623h-1.943v-1.145h1.943v-3.347h1.361v3.347H156.779z"
			/>
		<path d="M158.808,21.11c0.23-0.475,0.544-0.864,0.939-1.166c0.396-0.303,0.86-0.526,1.393-0.669
			c0.532-0.144,1.123-0.215,1.771-0.215c0.49,0,0.978,0.047,1.468,0.139c0.49,0.094,0.93,0.271,1.318,0.53
			c0.389,0.258,0.703,0.623,0.949,1.09c0.244,0.467,0.368,1.077,0.368,1.825v5.916c0,0.549,0.267,0.82,0.798,0.82
			c0.159,0,0.303-0.027,0.433-0.086v1.145c-0.159,0.029-0.299,0.051-0.423,0.064c-0.121,0.016-0.275,0.022-0.463,0.022
			c-0.345,0-0.622-0.048-0.832-0.142c-0.208-0.092-0.371-0.226-0.484-0.398c-0.116-0.172-0.191-0.379-0.227-0.615
			c-0.036-0.238-0.055-0.5-0.055-0.788h-0.043c-0.245,0.36-0.493,0.681-0.744,0.96c-0.254,0.28-0.533,0.516-0.844,0.703
			c-0.311,0.186-0.662,0.33-1.059,0.432c-0.395,0.1-0.866,0.15-1.412,0.15c-0.52,0-1.005-0.061-1.458-0.184
			c-0.454-0.121-0.85-0.316-1.188-0.582c-0.338-0.267-0.605-0.605-0.799-1.016s-0.292-0.896-0.292-1.457
			c0-0.777,0.174-1.387,0.519-1.824c0.346-0.439,0.803-0.775,1.372-1.006c0.568-0.229,1.208-0.392,1.921-0.484
			c0.713-0.094,1.436-0.185,2.17-0.27c0.289-0.029,0.54-0.065,0.755-0.109c0.218-0.043,0.397-0.119,0.542-0.227
			c0.143-0.107,0.253-0.256,0.334-0.443c0.079-0.186,0.119-0.43,0.119-0.733c0-0.46-0.075-0.839-0.227-1.134
			c-0.152-0.295-0.361-0.529-0.627-0.702c-0.266-0.172-0.576-0.292-0.928-0.356c-0.353-0.064-0.73-0.096-1.135-0.096
			c-0.863,0-1.568,0.206-2.117,0.615c-0.547,0.411-0.834,1.069-0.863,1.977h-1.359C158.44,22.147,158.577,21.584,158.808,21.11z
			 M165.61,24.436c-0.088,0.158-0.254,0.273-0.498,0.345s-0.461,0.122-0.646,0.151c-0.578,0.102-1.17,0.191-1.782,0.27
			c-0.612,0.08-1.169,0.199-1.674,0.355c-0.505,0.158-0.917,0.385-1.241,0.682c-0.324,0.295-0.486,0.716-0.486,1.262
			c0,0.347,0.069,0.653,0.206,0.918c0.136,0.268,0.319,0.496,0.55,0.691c0.23,0.194,0.497,0.342,0.799,0.443
			c0.303,0.101,0.611,0.15,0.93,0.15c0.518,0,1.014-0.078,1.49-0.237c0.475-0.157,0.889-0.388,1.24-0.69s0.634-0.67,0.843-1.102
			c0.208-0.432,0.313-0.922,0.313-1.469v-1.77H165.61z"/>
		<path d="M170.899,15.106v15.419h-1.359V15.106H170.899z"/>
	</g>
	<g>
		<path fill="#6081E8" d="M40.074,20.039c0,11.065-8.972,20.036-20.037,20.036C8.972,40.075,0,31.104,0,20.039
			C0,8.974,8.972,0,20.037,0C31.102,0,40.074,8.974,40.074,20.039z M20.037,3.525c-9.119,0-16.514,7.395-16.514,16.514
			c0,9.12,7.395,16.515,16.514,16.515c9.121,0,16.514-7.395,16.514-16.515C36.551,10.919,29.158,3.525,20.037,3.525z"/>
		<path d="M36.224,20.759c0,8.976-7.277,16.251-16.253,16.251c-8.976,0-16.253-7.275-16.253-16.251
			c0-8.976,7.277-16.255,16.253-16.255C28.946,4.504,36.224,11.783,36.224,20.759z M19.971,8.016
			c-7.038,0-12.745,5.703-12.745,12.744c0,7.036,5.707,12.743,12.745,12.743c7.039,0,12.744-5.707,12.744-12.743
			C32.715,13.718,27.009,8.016,19.971,8.016z"/>
		<path fill="#FF4900" d="M33.025,19.318c0,6.624-5.37,11.993-11.994,11.993c-6.625,0-11.994-5.369-11.994-11.993
			S14.406,7.326,21.031,7.326C27.655,7.326,33.025,12.695,33.025,19.318z M21.031,10.641c-4.792,0-8.679,3.886-8.679,8.678
			c0,4.793,3.886,8.678,8.679,8.678s8.677-3.885,8.677-8.678C29.708,14.527,25.824,10.641,21.031,10.641z"/>
		<circle fill="#00CA3A" cx="19.477" cy="21.667" r="6.103"/>
	</g>
</g>
</svg>
